<?xml version="1.0" encoding="UTF-8" standalone="no"?>
<!-- Created with Inkscape (http://www.inkscape.org/) -->

<svg
   xmlns:dc="http://purl.org/dc/elements/1.1/"
   xmlns:cc="http://creativecommons.org/ns#"
   xmlns:rdf="http://www.w3.org/1999/02/22-rdf-syntax-ns#"
   xmlns:svg="http://www.w3.org/2000/svg"
   xmlns="http://www.w3.org/2000/svg"
   xmlns:sodipodi="http://sodipodi.sourceforge.net/DTD/sodipodi-0.dtd"
   xmlns:inkscape="http://www.inkscape.org/namespaces/inkscape"
   width="300"
   height="150"
   id="svg2"
   version="1.1"
   inkscape:version="0.48.3.1 r9886"
   sodipodi:docname="retinus.svg">
  <defs
     id="defs4" />
  <sodipodi:namedview
     id="base"
     pagecolor="#ffffff"
     bordercolor="#666666"
     borderopacity="1.0"
     inkscape:pageopacity="0.0"
     inkscape:pageshadow="2"
     inkscape:zoom="5.6568542"
     inkscape:cx="143.74764"
     inkscape:cy="60.394874"
     inkscape:document-units="px"
     inkscape:current-layer="layer1"
     showgrid="false"
     inkscape:window-width="1920"
     inkscape:window-height="1052"
     inkscape:window-x="2340"
     inkscape:window-y="390"
     inkscape:window-maximized="1"
     showguides="true">
    <inkscape:grid
       type="xygrid"
       id="grid3847"
       empspacing="5"
       visible="true"
       enabled="true"
       snapvisiblegridlinesonly="true" />
  </sodipodi:namedview>
  <metadata
     id="metadata7">
    <rdf:RDF>
      <cc:Work
         rdf:about="">
        <dc:format>image/svg+xml</dc:format>
        <dc:type
           rdf:resource="http://purl.org/dc/dcmitype/StillImage" />
        <dc:title></dc:title>
      </cc:Work>
    </rdf:RDF>
  </metadata>
  <g
     inkscape:label="Layer 1"
     inkscape:groupmode="layer"
     id="layer1"
     transform="translate(0,-902.36218)">
    <g
       transform="translate(0.72717305,3.9897755)"
       style="font-size:40px;font-style:normal;font-variant:normal;font-weight:normal;font-stretch:normal;line-height:125%;letter-spacing:0px;word-spacing:0px;fill:#dddddd;fill-opacity:1;stroke:none;font-family:Ubuntu;-inkscape-font-specification:Ubuntu"
       id="flowRoot2987">
      <path
         d="m 100.64965,974.63914 c 0.76797,0.96002 0.60297,1.10702 1.755,2.691 1.19996,1.53602 2.36146,3.76401 3.6095,5.684 1.24796,1.87201 2.28446,3.96501 3.4845,6.029 1.12296,3.314 1.55396,3.181 2.418,5.101 l -6.132,0 c -0.96004,-1.824 -1.76603,-3.672 -2.918,-5.544 -1.10403,-1.87199 -2.23203,-3.64799 -3.384002,-5.328 -1.15203,-1.72799 -1.67903,-3.46098 -2.831,-4.949 -1.10403,-2.36298 -1.67452,-3.15898 -2.5865,-4.263 -0.62402,0.048 -3.08452,-0.428 -3.7565,-0.428 -0.62402,2e-5 -3.77202,-0.12498 -6.194,-0.125 l -1.639,0.375 -1.15164,8.68378 0.14812,7.90881 0.25352,3.66941 -6.609,0 3.51311,-37.53899 -0.15435,-10.75313 c 0.0234,-1.54061 1.54323,-1.67583 3.94324,-1.81988 2.44798,-0.19195 4.67998,-0.28795 6.696,-0.288 7.00797,5e-5 12.335972,1.32005 15.984002,3.96 3.69596,2.64004 5.54396,6.57604 5.544,11.808 -4e-5,3.31203 -0.88804,6.14403 -2.664,8.496 -1.72804,2.35202 -4.92103,4.16652 -8.329002,5.3185 m -14.62842,-26.74987 c -2.72601,0.50005 -2.00081,1.23805 -2.17058,3.50337 l 0,18.792 4.968,0 c 2.39998,3e-5 4.66353,0.10858 6.83355,0.119 2.07623,0.0413 6.135052,0.14149 7.962332,6.9e-4 1.87745,-0.40063 4.5545,-2.38875 2.64827,-10.06903 -1.75855,-5.08131 -4.04434,-7.95719 -7.747992,-9.73741 -4.47558,-1.77692 -4.02875,-2.05452 -8.9991,-2.62873"
         style="font-size:72px;fill:#222222;font-family:Ubuntu;-inkscape-font-specification:Ubuntu;fill-opacity:1;stroke-width:2.91599999999999993;stroke-miterlimit:4;stroke-dasharray:none"
         id="path3967"
         inkscape:connector-curvature="0"
         sodipodi:nodetypes="cccccccccccccccccccccccccccccccccc" />
      <flowRoot
         xml:space="preserve"
         id="flowRoot3983"
         style="font-size:40px;font-style:normal;font-weight:normal;line-height:125%;letter-spacing:0px;word-spacing:0px;fill:#dddddd;fill-opacity:1;stroke:none;font-family:Sans"
         transform="translate(-0.72717305,-3.9897755)"><flowRegion
           id="flowRegion3985"><rect
             id="rect3987"
             width="140"
             height="47.5"
             x="113.25"
             y="196.11218"
             style="fill:#dddddd;fill-opacity:1" /></flowRegion><flowPara
           id="flowPara3989" /></flowRoot>      <text
         xml:space="preserve"
         style="font-size:40px;font-style:normal;font-weight:normal;line-height:125%;letter-spacing:0px;word-spacing:0px;fill:#dddddd;fill-opacity:1;stroke:none;font-family:Sans"
         x="109.62202"
         y="993.93158"
         id="text3991"
         sodipodi:linespacing="125%"><tspan
           sodipodi:role="line"
           id="tspan3993"
           x="109.62202"
           y="993.93158"
           style="font-style:normal;font-variant:normal;font-weight:normal;font-stretch:normal;letter-spacing:-2.25999998999999985px;word-spacing:0px;font-family:Ubuntu;-inkscape-font-specification:Ubuntu;fill:#222222;fill-opacity:1"
           dy="0">etinus</tspan></text>
      <path
         sodipodi:type="arc"
         style="fill:#222222;fill-opacity:1;stroke:none"
         id="path3997"
         sodipodi:cx="174.625"
         sodipodi:cy="95.21875"
         sodipodi:rx="1.40625"
         sodipodi:ry="1.40625"
         d="m 174.60886,93.812593 c 0.7766,-0.0089 1.41338,0.613415 1.4223,1.390014 0.009,0.7766 -0.61342,1.413385 -1.39002,1.4223 -0.7766,0.0089 -1.41338,-0.613415 -1.4223,-1.390014 -0.009,-0.765834 0.59689,-1.397878 1.3624,-1.421712"
         transform="matrix(1.4876553,0,0,1.4876553,-85.420705,851.74036)"
         sodipodi:start="4.7009096"
         sodipodi:end="10.96445"
         sodipodi:open="true" />
    </g>
    <path
       sodipodi:type="arc"
       style="fill:none;stroke:#222222;stroke-width:2.00024625999999994;stroke-miterlimit:4;stroke-opacity:1;stroke-dasharray:none"
       id="path3921"
       sodipodi:cx="85"
       sodipodi:cy="102.36218"
       sodipodi:rx="12"
       sodipodi:ry="12"
       d="m 84.886765,90.362717 c 6.627122,-0.06254 12.050163,5.259109 12.112701,11.886233 9.19e-4,0.0975 6.52e-4,0.19491 -8.03e-4,0.29236"
       sodipodi:start="4.7029526"
       sodipodi:end="6.2981134"
       sodipodi:open="true"
       transform="matrix(1.4578205,0,0,1.4578205,-39.77557,822.89227)" />
    <path
       sodipodi:type="arc"
       style="fill:none;stroke:#222222;stroke-width:2.00024625999999994;stroke-miterlimit:4;stroke-opacity:1;stroke-dasharray:none"
       id="path3923"
       sodipodi:cx="85"
       sodipodi:cy="102.36218"
       sodipodi:rx="8"
       sodipodi:ry="8"
       d="m 84.908167,94.36271 c 4.417987,-0.05072 8.040588,3.489653 8.091306,7.90764 9.95e-4,0.0867 5.81e-4,0.17343 -0.0012,0.26012"
       sodipodi:start="4.7009096"
       sodipodi:end="6.3042232"
       sodipodi:open="true"
       transform="matrix(1.4578205,0,0,1.4578205,-39.77557,822.89227)" />
    <path
       sodipodi:type="arc"
       style="fill:#222222;fill-opacity:1;stroke:none;stroke-width:2.00024625999999994;stroke-miterlimit:4;stroke-dasharray:none"
       id="path3927"
       sodipodi:cx="86.5"
       sodipodi:cy="100.86218"
       sodipodi:rx="1.5"
       sodipodi:ry="1.5"
       d="m 88,100.86218 c 0,0.82843 -0.671573,1.5 -1.5,1.5 -0.828427,0 -1.5,-0.67157 -1.5,-1.5 0,-0.82842 0.671573,-1.499997 1.5,-1.499997 0.828427,0 1.5,0.671577 1.5,1.499997 z"
       transform="matrix(1.4578205,0,0,1.4578205,-40.097706,823.05334)" />
  </g>
</svg>
